# xmcd
#
# Track frame offsets: 
#        150
#        20813
#        38949
#        56595
#        71301
#        95053
#        116750
#        139761
#        155475
#        180134
#
# Disc length: 2677 seconds
#
# Revision: 1
# Processed by: cddbd v1.5.2PL0 Copyright (c) Steve Scherf et al.
# Submitted via: ExactAudioCopyFreeDBPlugin 1.0
#
DISCID=850a730a
DTITLE=Martial Solal Trio - Longitude
DYEAR=2008
DGENRE=Jazz
TTITLE0=Slightly bluesy
TTITLE1=Here's that rainy day
TTITLE2=Longitude
TTITLE3=Bizarre, vous avez dit?
TTITLE4=Tea for two
TTITLE5=Solaltitude
TTITLE6=Short cuts
TTITLE7=The last time I saw Paris
TTITLE8=Monostome
TTITLE9=Navigation
EXTD=YEAR: 2008
EXTT0=
EXTT1=
EXTT2=
EXTT3=
EXTT4=
EXTT5=
EXTT6=
EXTT7=
EXTT8=
EXTT9=
PLAYORDER=
